HIERARCHY
ROOT root
{
	OFFSET 0.000000 0.000000 0.000000
	CHANNELS 6 Xposition Yposition Zposition Zrotation Yrotation Xrotation
	JOINT lhip
	{
		OFFSET 0.058581 -0.082280 -0.017664
		CHANNELS 3 Zrotation Yrotation Xrotation
		JOINT lknee
		{
			OFFSET 0.043451 -0.386469 0.008037
			CHANNELS 3 Zrotation Yrotation Xrotation
			JOINT lankle
			{
				OFFSET -0.014790 -0.426874 -0.037428
				CHANNELS 3 Zrotation Yrotation Xrotation
				JOINT ltoe
				{
					OFFSET 0.041054 -0.060286 0.122042
					CHANNELS 3 Zrotation Yrotation Xrotation
					End Site
					{
						OFFSET 0.000000 0.000000 0.000000
					}
				}
			}
		}
	}
	JOINT rhip
	{
		OFFSET -0.060310 -0.090513 -0.013543
		CHANNELS 3 Zrotation Yrotation Xrotation
		JOINT rknee
		{
			OFFSET -0.043257 -0.383688 -0.004843
			CHANNELS 3 Zrotation Yrotation Xrotation
			JOINT rankle
			{
				OFFSET 0.019056 -0.420046 -0.034562
				CHANNELS 3 Zrotation Yrotation Xrotation
				JOINT rtoe
				{
					OFFSET -0.034840 -0.062106 0.130323
					CHANNELS 3 Zrotation Yrotation Xrotation
					End Site
					{
						OFFSET 0.000000 0.000000 0.000000
					}
				}
			}
		}
	}
	JOINT lowerback
	{
		OFFSET 0.004439 0.124404 -0.038385
		CHANNELS 3 Zrotation Yrotation Xrotation
		JOINT upperback
		{
			OFFSET 0.004488 0.137956 0.026820
			CHANNELS 3 Zrotation Yrotation Xrotation
			JOINT chest
			{
				OFFSET -0.002265 0.056032 0.002855
				CHANNELS 3 Zrotation Yrotation Xrotation
				JOINT lowerneck
				{
					OFFSET -0.013390 0.211636 -0.033468
					CHANNELS 3 Zrotation Yrotation Xrotation
					JOINT upperneck
					{
						OFFSET 0.010113 0.088937 0.050410
						CHANNELS 3 Zrotation Yrotation Xrotation
						End Site
						{
							OFFSET 0.000000 0.000000 0.000000
						}
					}
				}
				JOINT lclavicle
				{
					OFFSET 0.071702 0.114000 -0.018898
					CHANNELS 3 Zrotation Yrotation Xrotation
					JOINT lshoulder
					{
						OFFSET 0.122921 0.045205 -0.019046
						CHANNELS 3 Zrotation Yrotation Xrotation
						JOINT lelbow
						{
							OFFSET 0.255332 -0.015649 -0.022946
							CHANNELS 3 Zrotation Yrotation Xrotation
							JOINT lwrist
							{
								OFFSET 0.265709 0.012698 -0.007375
								CHANNELS 3 Zrotation Yrotation Xrotation
								End Site
								{
									OFFSET 0.000000 0.000000 0.000000
								}
							}
						}
					}
				}
				JOINT rclavicle
				{
					OFFSET -0.082954 0.112472 -0.023707
					CHANNELS 3 Zrotation Yrotation Xrotation
					JOINT rshoulder
					{
						OFFSET -0.113228 0.046853 -0.008472
						CHANNELS 3 Zrotation Yrotation Xrotation
						JOINT relbow
						{
							OFFSET -0.260127 -0.014369 -0.031269
							CHANNELS 3 Zrotation Yrotation Xrotation
							JOINT rwrist
							{
								OFFSET -0.269108 0.006794 -0.006027
								CHANNELS 3 Zrotation Yrotation Xrotation
								End Site
								{
									OFFSET 0.000000 0.000000 0.000000
								}
							}
						}
					}
				}
			}
		}
	}
}
MOTION
Frames: 16
Frame Time: 0.033333
-0.302849 0.591085 1.503071 90.631869 -7.711043 84.920028 -4.842897 -7.886508 -25.905392 -8.008322 -6.976145 24.600132 0.297421 4.784267 -12.266162 0.000000 -0.000000 0.000000 -6.088520 -5.497169 -20.539891 1.436515 -3.868668 25.780319 6.001981 -7.864769 -19.145902 0.000000 -0.000000 0.000000 1.219893 5.116195 12.350051 0.522724 -3.314033 11.149570 -0.695344 1.915837 -4.971362 -1.104846 -3.856511 12.405095 4.083741 -3.038853 15.551115 -26.757265 -4.906137 4.013549 -35.354280 -11.332322 10.539674 20.821454 -47.316791 -6.248878 -13.044432 -24.659611 10.570484 25.107747 11.477788 5.869465 51.763474 8.706500 2.424789 -38.173231 41.898095 -35.160034 9.127913 25.515054 -6.079480 
-0.272835 0.590921 1.509236 91.569477 -7.865608 84.800974 -4.716068 -7.374802 -25.500770 -9.285918 -7.665570 25.935810 -0.216372 4.092333 -13.801790 0.000000 -0.000000 0.000000 -6.751711 -6.032838 -20.534035 1.626067 -3.968149 26.177872 5.698257 -8.104414 -17.376576 0.000000 -0.000000 0.000000 1.659260 5.327543 11.906168 0.624544 -2.827807 10.783942 -1.039277 1.651809 -4.959948 -0.487377 -4.733319 12.132515 4.040484 -2.972764 15.638571 -28.823287 -3.359237 4.327265 -35.621536 -11.087506 10.160565 20.279131 -44.246991 -8.300341 -11.916659 -23.733567 9.498726 25.906388 9.100678 5.588889 53.646034 5.626751 2.455344 -34.502228 40.170716 -31.083322 9.418947 25.082398 -5.370337 
-0.243334 0.589381 1.516958 92.080132 -7.526377 84.335351 -4.458580 -7.276848 -24.374090 -9.680822 -7.034082 28.813472 0.415899 5.534576 -14.814615 0.000000 -0.000000 0.000000 -7.024940 -5.985559 -19.476161 1.366662 -3.878233 25.090553 5.195038 -8.490142 -14.411385 0.000000 -0.000000 0.000000 1.614968 4.950459 11.425565 0.995325 -2.939446 10.816346 -1.179178 1.606220 -4.868994 -0.130098 -5.482389 12.790894 4.174642 -2.740678 14.857647 -29.329492 -1.371089 4.405309 -37.996486 -10.727127 9.671682 20.788315 -39.947693 -12.535263 -9.078235 -21.679987 6.987728 25.812516 7.274356 5.388959 55.434338 3.934263 3.590891 -30.048652 37.220655 -25.520343 10.209517 23.918982 -5.126605 
-0.214977 0.587537 1.524458 92.150108 -7.007179 83.986195 -4.215800 -7.586179 -22.378940 -9.558586 -6.215122 31.313153 1.234962 7.152162 -15.310613 0.000000 -0.000000 0.000000 -7.267910 -5.889879 -18.038937 1.047304 -3.136171 22.899644 4.941552 -8.355141 -10.693704 0.000000 -0.000000 0.000000 1.366544 4.596461 10.488285 1.324268 -3.182254 10.984639 -1.206811 1.565776 -4.608154 0.358526 -5.675876 13.338100 3.719187 -2.300276 14.613439 -29.058294 -0.148803 4.145201 -41.051822 -9.822977 9.669944 21.222948 -34.544116 -16.532948 -6.552870 -19.577597 4.122550 25.384337 6.292210 5.051354 57.023754 2.191180 5.400329 -26.230988 33.435715 -21.146114 10.950914 22.878593 -5.823530 
-0.187315 0.585669 1.530160 91.274742 -6.234516 83.881517 -4.130236 -7.650997 -18.966356 -9.826891 -7.704845 31.252687 0.241114 6.565031 -14.224646 0.000000 -0.000000 0.000000 -7.318839 -5.548459 -16.675672 0.758415 -2.066968 20.059826 4.867831 -7.720718 -6.711440 0.000000 -0.000000 0.000000 1.376074 4.508738 9.260293 1.577485 -2.861112 11.005240 -1.316736 1.413900 -4.204952 0.870962 -5.662118 13.892232 3.430533 -2.458531 14.679836 -28.690947 0.813722 3.559369 -43.560837 -9.255181 10.209911 20.414679 -28.207085 -18.832823 -6.150464 -18.197342 1.942127 25.195832 5.199614 4.733990 57.977647 0.572897 6.950486 -23.166784 30.056096 -17.855502 12.236277 21.929948 -6.393102 
-0.160548 0.583616 1.532391 89.686520 -5.104392 84.127166 -4.230271 -7.092649 -14.603908 -9.194171 -10.463605 27.347419 -1.384702 6.531045 -15.702961 0.000000 -0.000000 0.000000 -7.023506 -4.913397 -15.759021 0.603425 -0.480186 17.456723 5.031203 -7.144356 -4.191522 0.000000 -0.000000 0.000000 1.763696 4.326801 7.762939 1.756712 -2.255923 10.790063 -1.543688 1.405041 -3.641837 1.326192 -5.283378 14.095058 3.185007 -2.693807 14.638440 -28.224702 1.733230 3.159120 -45.320126 -8.432499 10.510993 18.735045 -23.139564 -19.846465 -8.296138 -16.765041 0.703634 24.838177 4.200036 4.588806 58.837727 -1.051840 7.514021 -20.941221 27.794235 -15.125091 14.188064 20.540838 -6.326872 
-0.135053 0.581694 1.530452 88.015259 -3.992543 84.536403 -5.016265 -5.615140 -10.447458 -7.081374 -13.098590 20.255572 -0.207804 8.193600 -20.335645 0.000000 -0.000000 0.000000 -6.970256 -4.465391 -15.575981 0.607976 0.716878 16.243374 5.561747 -7.350294 -4.882333 0.000000 -0.000000 0.000000 1.859889 3.817412 6.258573 1.920588 -1.903750 10.844869 -1.707583 1.425944 -3.161815 1.836605 -4.815385 13.173172 2.923692 -2.392717 14.659984 -27.707887 2.538868 2.876759 -46.616226 -6.799774 10.648466 17.096045 -20.416676 -19.606175 -11.708538 -15.466373 0.302873 24.260950 3.646592 4.142670 59.630006 -2.637199 8.054144 -19.503587 26.184950 -13.194248 15.958804 19.546853 -6.985866 
-0.114966 0.580370 1.526771 87.295127 -2.790314 84.954796 -6.055841 -4.936456 -8.904925 -4.891467 -13.469745 16.174275 1.768045 10.737041 -23.283134 0.000000 -0.000000 0.000000 -6.969776 -4.738557 -16.420329 0.862488 0.346232 16.767830 5.624370 -8.783788 -8.035183 0.000000 -0.000000 0.000000 1.992545 3.011417 6.331699 1.895495 -2.102838 9.701392 -1.591883 1.336258 -2.377388 2.115210 -4.388028 10.642457 2.917797 -1.174004 15.319890 -27.692565 3.258931 2.414589 -47.287783 -5.212151 10.964193 15.362226 -19.503371 -17.768738 -15.021152 -14.298457 1.134594 24.062187 2.956324 3.136820 59.683528 -3.622791 8.498497 -18.721586 24.878294 -12.827403 17.855811 18.710790 -7.135698 
-0.101007 0.578488 1.525853 87.510885 -1.942896 85.073322 -6.377801 -6.292119 -9.691570 -4.448712 -14.346162 16.778863 2.617074 11.969225 -23.529045 0.000000 -0.000000 0.000000 -6.878145 -4.956213 -17.556862 1.509532 0.276675 18.608672 5.257894 -9.850662 -11.402429 0.000000 -0.000000 0.000000 1.463531 2.606538 7.674508 2.044476 -2.728250 8.595219 -1.108087 0.904771 -1.787125 1.968945 -4.604223 8.832119 3.448630 -0.243055 15.527896 -28.058067 3.704242 2.343538 -47.721894 -4.910346 11.561100 13.830884 -19.532967 -14.676522 -17.949598 -13.715352 2.258217 24.611456 2.186091 2.350192 59.136725 -3.570955 8.499799 -19.053406 23.714101 -13.708363 19.262591 17.706881 -6.938972 
-0.089154 0.574881 1.529364 87.543666 -1.373040 85.188260 -5.530885 -7.274869 -11.166652 -5.552987 -14.535634 18.656719 2.697916 12.119627 -22.499840 0.000000 -0.000000 0.000000 -6.280342 -4.396437 -18.880449 3.147548 0.669062 22.102499 5.591352 -8.850564 -13.064599 0.000000 -0.000000 0.000000 0.722351 2.795801 8.126265 2.275077 -2.955895 9.182514 -0.795495 0.493462 -1.896841 1.700837 -4.214431 8.599603 3.962922 0.026455 14.572533 -27.857026 3.368768 2.691512 -48.825496 -5.390583 12.587995 12.893144 -19.665611 -11.346970 -20.154533 -13.591184 2.342513 25.105662 1.741504 2.459039 59.516100 -3.090126 8.186914 -20.250958 22.206171 -15.450638 18.605748 17.324368 -9.048497 
-0.076551 0.571429 1.534600 87.427847 -0.893184 85.283848 -4.767721 -6.508168 -11.134377 -5.372178 -14.938471 18.027084 2.670899 11.327100 -21.138915 0.000000 -0.000000 0.000000 -5.155306 -3.472947 -19.569175 4.896416 0.545696 25.758252 6.185589 -7.245550 -12.582477 0.000000 -0.000000 0.000000 0.398164 2.573036 7.540093 2.375594 -2.818181 10.668353 -0.915451 0.614402 -2.542998 1.446065 -3.347342 10.143706 4.170443 -0.103677 13.673895 -27.398637 2.588511 3.047226 -50.175080 -5.706925 14.089359 12.250891 -20.082574 -8.393670 -21.405430 -14.129913 1.315521 24.339402 2.137456 2.971090 61.365013 -3.093668 8.486203 -21.161681 19.947427 -16.889103 16.135650 18.044892 -13.822412 
-0.062115 0.567663 1.540110 88.057390 -0.658693 85.006042 -4.068951 -6.337023 -9.977886 -5.067002 -16.048207 16.658536 2.124926 10.984733 -20.092239 0.000000 -0.000000 0.000000 -3.685359 -2.818844 -17.746127 5.010327 -0.034938 25.899396 5.854063 -7.721931 -12.003555 0.000000 -0.000000 0.000000 0.096058 2.345186 7.026616 2.269786 -2.905161 11.502480 -1.026447 0.720784 -2.762770 1.392336 -2.927793 11.023203 4.114082 -0.182533 14.045914 -27.389235 2.112859 2.986861 -50.657939 -6.038039 15.468230 11.609935 -21.555669 -6.248771 -23.563017 -14.496190 0.739769 23.491537 2.255902 2.685431 62.678106 -3.813797 9.126844 -21.036070 18.535113 -17.152296 15.679542 17.993389 -17.564097 
-0.046909 0.562951 1.544029 89.504585 -1.022352 84.875177 -3.678864 -6.413040 -8.885890 -4.928360 -16.911975 15.637318 1.303076 10.293947 -19.920655 0.000000 -0.000000 0.000000 -2.248254 -3.082103 -14.397046 3.457040 -0.632012 22.168968 5.081241 -9.609055 -12.550704 0.000000 -0.000000 0.000000 -0.724425 2.420628 6.232792 1.983423 -3.384337 11.934304 -1.099986 0.565296 -3.066874 1.258004 -2.728717 11.376866 4.461323 -0.263304 14.314980 -27.555092 2.442168 2.792234 -50.318967 -6.772295 16.420671 10.866269 -23.952025 -4.692053 -26.578332 -14.501014 1.933486 23.205547 1.520852 2.368849 63.087395 -4.574488 9.916995 -20.548823 18.238194 -15.737351 17.730241 17.751623 -17.914956 
-0.032248 0.558858 1.544978 90.877712 -1.399671 85.008915 -2.950752 -6.379230 -8.338632 -5.144855 -17.434378 15.410635 0.211217 9.527727 -20.163699 0.000000 -0.000000 0.000000 -1.074924 -3.421741 -11.751824 2.149508 -1.174338 18.762064 4.100708 -11.192833 -13.308629 0.000000 -0.000000 0.000000 -0.923834 2.614836 5.038243 1.446883 -3.512568 12.247379 -1.438053 0.443907 -3.322179 1.124573 -2.884097 11.245844 4.581221 -0.655963 14.567485 -28.002401 2.591110 2.785302 -49.688816 -7.504462 16.802713 10.522373 -27.066498 -4.087476 -28.620412 -14.339221 3.353081 23.044832 0.882624 2.378231 63.162229 -5.641842 10.048978 -20.215157 19.212047 -13.699038 20.229096 17.026119 -16.438117 
-0.019200 0.557239 1.545474 91.357756 -1.633987 84.892544 -2.318039 -5.893640 -7.389072 -5.285045 -17.818286 15.430691 -0.683169 9.168816 -20.033479 0.000000 -0.000000 0.000000 -0.471932 -3.145386 -10.812023 2.106937 -1.152580 19.154335 3.486109 -11.605001 -14.582514 0.000000 -0.000000 0.000000 -0.278586 2.621024 4.444756 0.744891 -3.000525 12.772638 -2.020221 0.531687 -3.663410 0.779559 -3.279518 10.688403 4.109018 -0.856463 14.476906 -29.318085 2.504114 2.608016 -48.749652 -8.139346 16.654678 10.789301 -30.470343 -4.728105 -28.244931 -14.059860 4.752754 23.159126 0.857557 2.558076 62.559913 -6.340867 9.843419 -19.664546 20.547180 -12.030494 21.529154 16.783627 -14.980474 
-0.008174 0.556231 1.546007 91.651523 -2.002557 84.532795 -2.100816 -5.303834 -6.757667 -5.930149 -17.115624 16.569744 -1.384689 8.628723 -19.732232 0.000000 -0.000000 0.000000 0.020383 -2.650896 -9.992497 1.632341 -0.737573 20.241036 2.716897 -12.137949 -16.721535 0.000000 -0.000000 0.000000 -0.077860 2.511231 4.526764 0.145791 -2.598539 13.118072 -2.293512 0.645500 -4.000815 0.406709 -3.248480 10.621875 3.702864 -0.856142 13.355963 -29.979628 2.430766 2.038137 -49.252481 -8.309440 16.875374 12.339222 -33.343659 -6.455105 -25.265102 -14.550323 6.202901 22.746417 1.286932 2.635291 62.182908 -6.190364 10.626949 -19.092356 20.976041 -10.716055 21.059787 17.258150 -15.037048 
